<svg xmlns="http://www.w3.org/2000/svg" width="256" height="256" viewBox="0 0 256 256" fill="none">
  <title>Memoria — 灯りを手で包む</title>
  
  <path d="M130 26 C111 52 80 91 80 124 C80 154 101 176 130 176 C159 176 180 154 180 124 C180 91 149 52 130 26Z M130 110 C121 124 111 136 111 147 C111 159 119 167 130 167 C141 167 149 159 149 147 C149 136 139 124 130 110Z" fill="#FFF8E8" fill-rule="evenodd"/>
  <path d="M37 168 C57 160 74 163 96 174 L124 186 C138 191 151 192 164 187 L176 182 C184 179 190 184 187 191 C183 202 169 209 152 211 C133 213 115 208 103 203 C97 201 94 204 100 208 C121 222 149 224 174 215 C196 207 208 190 221 168 C226 160 235 164 232 173 C218 213 185 240 146 242 C107 244 73 224 46 202 L29 188 C23 181 28 172 37 168Z" fill="#FFF8E8"/>
  
</svg>
