<svg xmlns="http://www.w3.org/2000/svg" viewBox="0 0 240 360" fill="none" stroke="#FCEBBA" stroke-width="1.2" stroke-linecap="round" stroke-linejoin="round">
  <path d="M47 350C115 272 84 173 181 33M93 278l63-38M105 211l-39-49M130 137l58-29"/>
  <path d="M93 279c-47-9-65-40-64-65 32 3 61 22 64 65ZM106 225c34-37 62-38 90-28-14 27-47 42-90 28ZM104 192c-38-6-56-30-58-58 35 4 55 23 58 58ZM132 138c22-36 53-47 79-37-14 25-41 41-79 37ZM146 110c-29-18-33-44-23-69 25 15 34 43 23 69ZM175 45c-3-24 11-38 33-43 2 21-11 38-33 43ZM154 241c12-23 33-31 54-24-11 21-26 28-54 24Z"/>
</svg>
